<svg width="46" height="75" viewBox="0 0 46 75" fill="none" xmlns="http://www.w3.org/2000/svg">
<path d="M5.8594 14.5156C5.8594 10.2656 7.4376 6.90625 10.5938 4.4375C13.7813 1.9375 18.1094 0.6875 23.5782 0.6875C27.9219 0.6875 32.1876 1.54687 36.375 3.26562L36.2813 10.7656C31.5626 8.92188 27.2657 8 23.3907 8C20.7032 8 18.5626 8.5625 16.9688 9.6875C15.4063 10.8125 14.625 12.3438 14.625 14.2812C14.625 17.6562 18.0782 20.5469 24.9844 22.9531C31.9219 25.3281 37 28.625 40.2188 32.8438C43.4688 37.0312 45.1719 42.1875 45.3282 48.3125V50.1406C45.3282 54.9219 44.4063 59.2188 42.5626 63.0312C40.7188 66.8125 38.0782 69.75 34.6407 71.8438C31.2344 73.9062 27.2657 74.9375 22.7344 74.9375C15.7969 74.9375 10.2657 72.6406 6.1407 68.0469C2.0469 63.4219 0 57.3281 0 49.7656V49.1562C0 44 1.4688 39.3594 4.4063 35.2344C7.3438 31.1094 11.0626 28.5 15.5626 27.4062L15.5157 27.1719C12.4219 25.9531 10.0313 24.25 8.3438 22.0625C6.6876 19.875 5.8594 17.3594 5.8594 14.5156ZM8.7657 50.1406C8.7657 55.6406 10.0157 59.9844 12.5157 63.1719C15.0469 66.3281 18.4532 67.9062 22.7344 67.9062C26.9844 67.9062 30.3594 66.3281 32.8594 63.1719C35.3594 60.0156 36.6094 55.3438 36.6094 49.1562C36.6094 44.9062 35.2813 41.0781 32.625 37.6719C30 34.2344 26.7344 32.125 22.8282 31.3438C18.5782 31.3438 15.1719 32.9531 12.6094 36.1719C10.0469 39.3594 8.7657 44.0156 8.7657 50.1406Z" fill="#242424"/>
</svg>
