<svg width="370" height="94" viewBox="0 0 370 94" fill="none" xmlns="http://www.w3.org/2000/svg">
<path d="M28.1406 14.5156C28.1406 10.2656 29.7188 6.90625 32.875 4.4375C36.0625 1.9375 40.3906 0.6875 45.8594 0.6875C50.2031 0.6875 54.4688 1.54687 58.6562 3.26562L58.5625 10.7656C53.8438 8.92188 49.5469 8 45.6719 8C42.9844 8 40.8438 8.5625 39.25 9.6875C37.6875 10.8125 36.9062 12.3438 36.9062 14.2812C36.9062 17.6562 40.3594 20.5469 47.2656 22.9531C54.2031 25.3281 59.2812 28.625 62.5 32.8438C65.75 37.0312 67.4531 42.1875 67.6094 48.3125V50.1406C67.6094 54.9219 66.6875 59.2188 64.8438 63.0312C63 66.8125 60.3594 69.75 56.9219 71.8438C53.5156 73.9062 49.5469 74.9375 45.0156 74.9375C38.0781 74.9375 32.5469 72.6406 28.4219 68.0469C24.3281 63.4219 22.2812 57.3281 22.2812 49.7656V49.1562C22.2812 44 23.75 39.3594 26.6875 35.2344C29.625 31.1094 33.3438 28.5 37.8438 27.4062L37.7969 27.1719C34.7031 25.9531 32.3125 24.25 30.625 22.0625C28.9688 19.875 28.1406 17.3594 28.1406 14.5156ZM31.0469 50.1406C31.0469 55.6406 32.2969 59.9844 34.7969 63.1719C37.3281 66.3281 40.7344 67.9062 45.0156 67.9062C49.2656 67.9062 52.6406 66.3281 55.1406 63.1719C57.6406 60.0156 58.8906 55.3438 58.8906 49.1562C58.8906 44.9062 57.5625 41.0781 54.9062 37.6719C52.2812 34.2344 49.0156 32.125 45.1094 31.3438C40.8594 31.3438 37.4531 32.9531 34.8906 36.1719C32.3281 39.3594 31.0469 44.0156 31.0469 50.1406ZM121.562 49.2031C121.562 56.9219 119.797 63.1406 116.266 67.8594C112.734 72.5781 107.953 74.9375 101.922 74.9375C95.7656 74.9375 90.9219 72.9844 87.3906 69.0781V93.5H78.7188V23.2812H86.6406L87.0625 28.9062C90.5938 24.5313 95.5 22.3438 101.781 22.3438C107.875 22.3438 112.688 24.6406 116.219 29.2344C119.781 33.8281 121.562 40.2188 121.562 48.4062V49.2031ZM112.891 48.2188C112.891 42.5 111.672 37.9844 109.234 34.6719C106.797 31.3594 103.453 29.7031 99.2031 29.7031C93.9531 29.7031 90.0156 32.0312 87.3906 36.6875V60.9219C89.9844 65.5469 93.9531 67.8594 99.2969 67.8594C103.453 67.8594 106.75 66.2188 109.188 62.9375C111.656 59.625 112.891 54.7188 112.891 48.2188ZM153.672 74.9375C146.797 74.9375 141.203 72.6875 136.891 68.1875C132.578 63.6562 130.422 57.6094 130.422 50.0469V48.4531C130.422 43.4219 131.375 38.9375 133.281 35C135.219 31.0312 137.906 27.9375 141.344 25.7188C144.812 23.4688 148.562 22.3438 152.594 22.3438C159.188 22.3438 164.312 24.5156 167.969 28.8594C171.625 33.2031 173.453 39.4219 173.453 47.5156V51.125H139.094C139.219 56.125 140.672 60.1719 143.453 63.2656C146.266 66.3281 149.828 67.8594 154.141 67.8594C157.203 67.8594 159.797 67.2344 161.922 65.9844C164.047 64.7344 165.906 63.0781 167.5 61.0156L172.797 65.1406C168.547 71.6719 162.172 74.9375 153.672 74.9375ZM152.594 29.4688C149.094 29.4688 146.156 30.75 143.781 33.3125C141.406 35.8438 139.938 39.4062 139.375 44H164.781V43.3438C164.531 38.9375 163.344 35.5312 161.219 33.125C159.094 30.6875 156.219 29.4688 152.594 29.4688ZM191.734 23.2812L192.016 29.6562C195.891 24.7812 200.953 22.3438 207.203 22.3438C217.922 22.3438 223.328 28.3906 223.422 40.4844V74H214.75V40.4375C214.719 36.7812 213.875 34.0781 212.219 32.3281C210.594 30.5781 208.047 29.7031 204.578 29.7031C201.766 29.7031 199.297 30.4531 197.172 31.9531C195.047 33.4531 193.391 35.4219 192.203 37.8594V74H183.531V23.2812H191.734ZM279.438 49.2031C279.438 56.9531 277.656 63.1875 274.094 67.9062C270.531 72.5938 265.75 74.9375 259.75 74.9375C253.344 74.9375 248.391 72.6719 244.891 68.1406L244.469 74H236.5V2H245.172V28.8594C248.672 24.5156 253.5 22.3438 259.656 22.3438C265.812 22.3438 270.641 24.6719 274.141 29.3281C277.672 33.9844 279.438 40.3594 279.438 48.4531V49.2031ZM270.766 48.2188C270.766 42.3125 269.625 37.75 267.344 34.5312C265.062 31.3125 261.781 29.7031 257.5 29.7031C251.781 29.7031 247.672 32.3594 245.172 37.6719V59.6094C247.828 64.9219 251.969 67.5781 257.594 67.5781C261.75 67.5781 264.984 65.9688 267.297 62.75C269.609 59.5312 270.766 54.6875 270.766 48.2188ZM288.109 48.1719C288.109 43.2031 289.078 38.7344 291.016 34.7656C292.984 30.7969 295.703 27.7344 299.172 25.5781C302.672 23.4219 306.656 22.3438 311.125 22.3438C318.031 22.3438 323.609 24.7344 327.859 29.5156C332.141 34.2969 334.281 40.6562 334.281 48.5938V49.2031C334.281 54.1406 333.328 58.5781 331.422 62.5156C329.547 66.4219 326.844 69.4688 323.312 71.6562C319.812 73.8438 315.781 74.9375 311.219 74.9375C304.344 74.9375 298.766 72.5469 294.484 67.7656C290.234 62.9844 288.109 56.6562 288.109 48.7812V48.1719ZM296.828 49.2031C296.828 54.8281 298.125 59.3438 300.719 62.75C303.344 66.1562 306.844 67.8594 311.219 67.8594C315.625 67.8594 319.125 66.1406 321.719 62.7031C324.312 59.2344 325.609 54.3906 325.609 48.1719C325.609 42.6094 324.281 38.1094 321.625 34.6719C319 31.2031 315.5 29.4688 311.125 29.4688C306.844 29.4688 303.391 31.1719 300.766 34.5781C298.141 37.9844 296.828 42.8594 296.828 49.2031ZM356.922 11V23.2812H366.391V29.9844H356.922V61.4375C356.922 63.4688 357.344 65 358.188 66.0312C359.031 67.0312 360.469 67.5312 362.5 67.5312C363.5 67.5312 364.875 67.3438 366.625 66.9688V74C364.344 74.625 362.125 74.9375 359.969 74.9375C356.094 74.9375 353.172 73.7656 351.203 71.4219C349.234 69.0781 348.25 65.75 348.25 61.4375V29.9844H339.016V23.2812H348.25V11H356.922Z" fill="white"/>
</svg>
